{"title":"The.Crossing.2.2015.BRRip.480p.x264.AAC-VYTO [P2PDL]","uid":13151933,"size":479904547,"categoryP":"video","categoryS":"movies","magnet":"?xt=urn:btih:32b4079f74c6c3ade917a5ba5aa6a9bdef7967ba&amp;dn=The.Crossing.2.2015.BRRip.480p.x264.AAC-VYTO+%5BP2PDL%5D&amp;tr=udp%3A%2F%2Ftracker.leechers-paradise.org%3A6969&amp;tr=udp%3A%2F%2Fzer0day.ch%3A1337&amp;tr=udp%3A%2F%2Fopen.demonii.com%3A1337&amp;tr=udp%3A%2F%2Ftracker.coppersurfer.tk%3A6969&amp;tr=udp%3A%2F%2Fexodus.desync.com%3A6969","seeders":0,"leechers":1,"uploader":"VYTOP2PDL","files":7,"time":1452070649,"description":"____    ____ ____    ____ .___________.  ______   \r\n     /   /      /   / |           | /  __    \r\n    /   /      /   /  `---|  |----`|  |  |  | \r\n        /     _    _/       |  |     |  |  |  | \r\n       /        |  |         |  |     |  `--'  | \r\n    __/         |__|         |__|      ______/  \r\n                                                  \r\nPresenting Small Encodes with quality for years!\r\n                                                                                                   \r\n                                                                                                   \r\n\r\nThe.Crossing.2.2015.BRRip.480p.x264.AAC-VYTO\r\n\r\n\r\nGenre: Drama  \nhttp://www.imdb.com/title/tt4027270/\r\n\r\n\r\nFormat                                   : MPEG-4\r\nFile size                                : 452 MiB\r\nDuration                                 : 2h 5mn\r\nOverall bit rate                         : 502 Kbps\r\n\r\nVideo\r\nFormat                                   : AVC\r\nBit rate                                 : 467 Kbps\r\nWidth                                    : 720 pixels\r\nHeight                                   : 304 pixels\r\nDisplay aspect ratio                     : 2.35:1\r\nFrame rate mode                          : Constant\r\nFrame rate                               : 24.000 fps\r\nBit depth                                : 8 bits\r\nStream size                              : 420 MiB (93%)\r\nWriting library                          : x264\r\n\r\nAudio\r\nFormat                                   : AAC\r\nBit rate mode                            : Variable\r\nBit rate                                 : 32.0 Kbps\r\nMaximum bit rate                         : 62.1 Kbps\r\nChannel(s)                               : 2 channels\r\nChannel positions                        : Front: L R \r\nSampling rate                            : 48.0 KHz \r\nStream size                              : 28.8 MiB (6%)\r\n\r\nSubtitle                                 : Yes (English)\r\n\r\nScreen Shot: (Click to view)\r\n \nhttp://ititli.com/pe \nhttp://ititli.com/pj \nhttp://ititli.com/pk \nhttp://ititli.com/po \nhttp://ititli.com/pG \nhttp://ititli.com/pH \nhttp://ititli.com/pM \nhttp://ititli.com/pU \nhttp://ititli.com/ph \nhttp://ititli.com/ps \nhttp://ititli.com/pY \nhttp://ititli.com/p4\r\n\r\n----------------------------------------------------------------------------------------------------\r\n\r\n\r\nEncoder Notes: Looking For Early Access To Anything You Can Provide WEBDL, DVDScr, DVDR, BluRay,\r\nDirect Audio, Music Releases and Seedboxes. If You Got anything to offer please contact us.\r\n\r\nSupport us by donating BC - 1FgwdzPsd1y25Gea8wP1qni35uGCtmkRCD\r\n\r\nSend some love!\r\nFind us and join us!","torrent":{"xt":"urn:btih:32b4079f74c6c3ade917a5ba5aa6a9bdef7967ba","amp;dn":"The.Crossing.2.2015.BRRip.480p.x264.AAC-VYTO+%5BP2PDL%5D","amp;tr":["udp%3A%2F%2Ftracker.leechers-paradise.org%3A6969","udp%3A%2F%2Fzer0day.ch%3A1337","udp%3A%2F%2Fopen.demonii.com%3A1337","udp%3A%2F%2Ftracker.coppersurfer.tk%3A6969","udp%3A%2F%2Fexodus.desync.com%3A6969"],"infoHash":"32b4079f74c6c3ade917a5ba5aa6a9bdef7967ba","infoHashBuffer":{"type":"Buffer","data":[50,180,7,159,116,198,195,173,233,23,165,186,90,166,169,189,239,121,103,186]},"announce":[],"urlList":[]}}